<svg width="12" height="12" viewBox="0 0 12 12" fill="none" xmlns="http://www.w3.org/2000/svg">
<path d="M6.00806 0.044632C6.20358 0.157663 6.28797 0.416391 6.38435 0.610466C6.40592 0.653607 6.40592 0.653607 6.42791 0.697619C6.45831 0.75848 6.48866 0.819358 6.51894 0.880272C6.56427 0.971428 6.60979 1.06248 6.65532 1.15354C6.80466 1.45269 6.95177 1.75273 7.09524 2.05475C7.23137 2.34056 7.3745 2.62287 7.51739 2.90535C7.55269 2.97519 7.58787 3.0451 7.62304 3.11501C7.63922 3.14686 7.63922 3.14686 7.65573 3.17935C7.6655 3.19881 7.67527 3.21828 7.68534 3.23833C7.69397 3.2554 7.7026 3.27247 7.7115 3.29006C7.72986 3.33272 7.72986 3.33272 7.72986 3.3835C7.75738 3.38715 7.78491 3.39081 7.81327 3.39458C8.53662 3.491 9.25923 3.5931 9.98141 3.69791C10.1084 3.71634 10.2355 3.73466 10.3626 3.75269C10.4842 3.76995 10.6058 3.78756 10.7273 3.80543C10.7727 3.81203 10.818 3.81851 10.8633 3.82486C10.9261 3.83368 10.9888 3.84294 11.0515 3.8523C11.0697 3.85474 11.0878 3.85719 11.1065 3.8597C11.2729 3.88544 11.4175 3.93656 11.5242 4.07063C11.5856 4.1862 11.5999 4.26864 11.5892 4.39912C11.5138 4.59231 11.3876 4.71508 11.2401 4.85774C11.2181 4.87956 11.196 4.90137 11.1733 4.92385C11.0785 5.01699 10.9828 5.10786 10.8822 5.19471C10.7791 5.28449 10.6823 5.37935 10.5863 5.47664C10.5604 5.50268 10.5604 5.50268 10.534 5.52925C10.4794 5.58412 10.4249 5.63907 10.3705 5.69405C10.2986 5.76659 10.2267 5.83905 10.1547 5.91145C10.1386 5.92775 10.1225 5.94405 10.1059 5.96084C10.0111 6.05614 9.91333 6.14617 9.81161 6.23403C9.67279 6.35498 9.54033 6.48291 9.4081 6.61099C9.37145 6.64619 9.33448 6.68107 9.29722 6.71563C9.24285 6.76612 9.18965 6.81763 9.13656 6.86945C9.11985 6.88454 9.10314 6.89963 9.08592 6.91517C9.0181 6.98325 8.97536 7.03225 8.97127 7.13089C8.97393 7.15513 8.97658 7.17936 8.97932 7.20433C8.98226 7.23136 8.9852 7.2584 8.98823 7.28625C9.00603 7.41959 9.02759 7.55193 9.05122 7.68434C9.05642 7.71415 9.06163 7.74396 9.06699 7.77467C9.08112 7.85547 9.09536 7.93625 9.10963 8.01703C9.12464 8.10214 9.13944 8.18727 9.15426 8.27241C9.20145 8.5433 9.2489 8.81414 9.29655 9.08495C9.32793 9.26335 9.35918 9.44176 9.39018 9.62022C9.40486 9.70471 9.41963 9.78917 9.43462 9.87359C9.45131 9.96778 9.46771 10.062 9.48405 10.1563C9.489 10.1837 9.49394 10.2112 9.49904 10.2395C9.57499 10.6835 9.57499 10.6835 9.49133 10.8468C9.40537 10.9576 9.32964 11.0117 9.19458 11.0499C8.99494 11.0533 8.81354 10.9517 8.63916 10.8626C8.61714 10.8515 8.59511 10.8404 8.57242 10.8289C8.39335 10.7377 8.21725 10.6415 8.04137 10.5443C7.81707 10.4211 7.58952 10.3046 7.36169 10.1882C7.11152 10.0603 6.86204 9.93169 6.61585 9.79622C6.59433 9.78443 6.57281 9.77265 6.55064 9.7605C6.46225 9.71204 6.37395 9.66346 6.28593 9.61433C6.21257 9.5735 6.13891 9.53327 6.06519 9.49312C6.04295 9.48054 6.02071 9.46795 5.9978 9.45499C5.97707 9.44381 5.95633 9.43263 5.93496 9.42111C5.91684 9.41108 5.89872 9.40106 5.88006 9.39073C5.80239 9.36929 5.7704 9.39062 5.69861 9.42647C5.68424 9.43351 5.66986 9.44056 5.65506 9.44782C5.60322 9.47346 5.55177 9.49979 5.50034 9.52625C5.4812 9.53605 5.46205 9.54585 5.44233 9.55595C5.38014 9.58783 5.31799 9.61981 5.25586 9.65181C5.23452 9.66277 5.21318 9.67374 5.1912 9.68504C4.9314 9.81859 4.67304 9.95406 4.41758 10.0958C4.17102 10.2316 3.91979 10.3584 3.66908 10.4863C3.39714 10.6251 3.12689 10.7661 2.86007 10.9146C2.83995 10.9258 2.81984 10.937 2.79912 10.9485C2.78209 10.9581 2.76507 10.9676 2.74753 10.9775C2.61325 11.0467 2.46881 11.0428 2.32166 11.0261C2.21795 10.9841 2.16032 10.9213 2.09473 10.8325C2.02429 10.6087 2.07845 10.3658 2.11862 10.1403C2.12403 10.1088 2.12944 10.0773 2.13501 10.0449C2.14974 9.95951 2.16468 9.87412 2.17971 9.78875C2.19546 9.69899 2.21093 9.60919 2.22644 9.5194C2.25581 9.34954 2.28541 9.17973 2.3151 9.00992C2.35539 8.77944 2.39535 8.5489 2.43532 8.31836C2.44495 8.26284 2.45458 8.20731 2.46421 8.15179C2.46733 8.13377 2.47046 8.11576 2.47367 8.0972C2.49217 7.99059 2.51072 7.88398 2.52933 7.77738C2.53811 7.72704 2.54689 7.67669 2.55566 7.62635C2.56633 7.56514 2.57702 7.50394 2.58773 7.44274C2.61109 7.30863 2.63359 7.17467 2.65173 7.03975C2.63683 7.03311 2.62193 7.02648 2.60657 7.01964C2.54682 6.98715 2.50797 6.95273 2.46029 6.90445C2.44316 6.88723 2.42603 6.87002 2.40838 6.85228C2.39011 6.83366 2.37183 6.81504 2.353 6.79586C2.3339 6.77663 2.3148 6.7574 2.29512 6.73758C2.23402 6.67603 2.17309 6.61431 2.11218 6.55257C2.05162 6.4913 1.99101 6.43007 1.93033 6.36891C1.89262 6.33089 1.85497 6.29279 1.8174 6.25462C1.71759 6.15387 1.61508 6.05866 1.50766 5.9661C1.42607 5.89402 1.34994 5.81675 1.2735 5.73927C1.2568 5.72248 1.2401 5.70568 1.22289 5.68837C1.1524 5.61747 1.08207 5.54642 1.01172 5.47539C0.959914 5.42312 0.908029 5.37093 0.85614 5.31874C0.832843 5.29513 0.832843 5.29513 0.809075 5.27104C0.71386 5.17529 0.615338 5.08501 0.513157 4.99674C0.428761 4.92358 0.349327 4.84563 0.269775 4.76729C0.253165 4.75141 0.236554 4.73554 0.21944 4.71918C0.0939404 4.59535 0.0227946 4.49094 0 4.31184C0.0137506 4.19987 0.0433411 4.10817 0.112671 4.01826C0.218451 3.93831 0.301904 3.90082 0.432248 3.87898C0.4494 3.87605 0.466552 3.87311 0.484223 3.87009C0.546495 3.8597 0.608853 3.85005 0.671265 3.84053C0.696301 3.83668 0.721338 3.83282 0.747134 3.82885C0.946788 3.79837 1.14664 3.76931 1.34654 3.74052C1.43355 3.72797 1.52054 3.71533 1.60753 3.7027C1.75311 3.68158 1.89869 3.66053 2.04428 3.63952C2.21258 3.61523 2.38087 3.59086 2.54916 3.56643C2.72897 3.54034 2.90879 3.5143 3.08862 3.48828C3.1403 3.4808 3.19199 3.47331 3.24367 3.46581C3.33956 3.45191 3.43547 3.43807 3.53137 3.42424C3.55999 3.42009 3.58861 3.41594 3.61809 3.41166C3.64407 3.40792 3.67004 3.40419 3.6968 3.40034C3.71945 3.39707 3.74209 3.39379 3.76542 3.39042C3.8197 3.3835 3.8197 3.3835 3.87048 3.3835C3.87734 3.36151 3.88421 3.33952 3.89128 3.31686C3.9205 3.23335 3.95508 3.15759 3.99485 3.07862C4.00971 3.049 4.02456 3.01938 4.03986 2.98886C4.0561 2.95672 4.07234 2.92459 4.08859 2.89245C4.1055 2.85878 4.12241 2.8251 4.1393 2.79142C4.1839 2.70256 4.2286 2.61377 4.27335 2.52499C4.35259 2.36771 4.4317 2.21037 4.5107 2.05297C4.51928 2.03588 4.52787 2.01879 4.53671 2.00119C4.6802 1.71523 4.81936 1.4274 4.95652 1.13835C5.03534 0.972886 5.11577 0.80822 5.19703 0.643946C5.21655 0.604359 5.23593 0.564708 5.2552 0.525002C5.28389 0.465929 5.31297 0.407064 5.34215 0.348229C5.35061 0.330591 5.35908 0.312953 5.3678 0.294781C5.43245 0.166037 5.50462 0.0935617 5.63037 0.0255891C5.76555 -0.0121358 5.8798 -0.010058 6.00806 0.044632Z" fill="#FF9E7B"/>
</svg>
